<svg width="30" height="30" viewBox="0 0 30 30" fill="none" xmlns="http://www.w3.org/2000/svg">
<g clip-path="url(#clip0_9_48)">
<path fill-rule="evenodd" clip-rule="evenodd" d="M19.6406 18.3188C20.0062 18.6844 20.0062 19.275 19.6406 19.6406C19.2741 20.0062 18.6806 20.0062 18.315 19.6406L15 16.3219L11.685 19.6406C11.3194 20.0062 10.7259 20.0062 10.3594 19.6406C9.99375 19.275 9.99375 18.6844 10.3594 18.3188L13.6744 15L10.3594 11.6812C9.99375 11.3156 9.99375 10.725 10.3594 10.3594C10.7259 9.9938 11.3194 9.9938 11.685 10.3594L15 13.6781L18.315 10.3594C18.6806 9.9938 19.2741 9.9938 19.6406 10.3594C20.0062 10.725 20.0062 11.3156 19.6406 11.6812L16.3256 15L19.6406 18.3188ZM26.25 0H3.75C1.67906 0 0 1.67812 0 3.75V26.25C0 28.3219 1.67906 30 3.75 30H26.25C28.3209 30 30 28.3219 30 26.25V3.75C30 1.67812 28.3209 0 26.25 0Z" fill="black"/>
</g>
<defs>
<clipPath id="clip0_9_48">
<rect width="30" height="30" fill="white"/>
</clipPath>
</defs>
</svg>
