<svg width="35" height="35" viewBox="0 0 35 35" fill="none" xmlns="http://www.w3.org/2000/svg">
<g clip-path="url(#clip0_9_60)">
<path d="M27.6332 13.5261H12.2648V8.07037C12.2653 6.61965 12.8488 5.32027 13.7985 4.3681C14.7501 3.41852 16.05 2.83603 17.4997 2.83507C18.95 2.83603 20.2499 3.41899 21.202 4.3681C22.1511 5.32027 22.7341 6.61965 22.7351 8.07037V10.2465H25.5701V8.07037C25.5711 5.84616 24.6646 3.81985 23.2064 2.36366C21.7502 0.905489 19.724 -0.00102452 17.4997 8.68974e-07C15.276 -0.00102452 13.2497 0.905489 11.7935 2.36366C10.3353 3.81985 9.42936 5.84616 9.42983 8.07037V13.5261H7.36682C6.03518 13.5261 4.95605 14.6057 4.95605 15.9368V23.586C4.95605 29.8897 10.5725 35 17.5002 35C24.428 35 30.0439 29.8897 30.0439 23.586V15.9369C30.0439 14.6057 28.9648 13.5261 27.6332 13.5261ZM18.4142 24.31L19.1494 27.4526H15.8506L16.5858 24.3094C15.6818 23.9468 15.0428 23.0636 15.0428 22.0301C15.0428 20.6731 16.1433 19.5732 17.4998 19.5732C18.8568 19.5732 19.9572 20.6731 19.9572 22.0301C19.9572 23.0636 19.3176 23.9468 18.4142 24.31Z" fill="black"/>
</g>
<defs>
<clipPath id="clip0_9_60">
<rect width="35" height="35" fill="white"/>
</clipPath>
</defs>
</svg>
