<svg width="35" height="35" viewBox="0 0 35 35" fill="none" xmlns="http://www.w3.org/2000/svg">
<path fill-rule="evenodd" clip-rule="evenodd" d="M5.05231 5.05234C2.91663 7.18801 2.91663 10.6253 2.91663 17.5C2.91663 24.3746 2.91663 27.812 5.05231 29.9476C7.18798 32.0833 10.6253 32.0833 17.5 32.0833C24.3745 32.0833 27.812 32.0833 29.9476 29.9476C32.0833 27.812 32.0833 24.3746 32.0833 17.5C32.0833 10.6253 32.0833 7.18801 29.9476 5.05234C27.812 2.91666 24.3745 2.91666 17.5 2.91666C10.6253 2.91666 7.18798 2.91666 5.05231 5.05234ZM19.3229 10.2083C19.3229 10.8124 19.8126 11.3021 20.4166 11.3021H22.151L18.9141 14.5391C18.487 14.9663 18.487 15.6587 18.9141 16.0858C19.3412 16.513 20.0337 16.513 20.4608 16.0858L23.6979 12.8489V14.5833C23.6979 15.1874 24.1876 15.6771 24.7916 15.6771C25.3957 15.6771 25.8854 15.1874 25.8854 14.5833V10.2083C25.8854 9.60427 25.3957 9.11457 24.7916 9.11457H20.4166C19.8126 9.11457 19.3229 9.60427 19.3229 10.2083ZM16.0858 20.4608C16.513 20.0337 16.513 19.3413 16.0858 18.9141C15.6587 18.487 14.9663 18.487 14.5391 18.9141L11.302 22.1511V20.4167C11.302 19.8126 10.8123 19.3229 10.2083 19.3229C9.60424 19.3229 9.11454 19.8126 9.11454 20.4167V24.7917C9.11454 25.3957 9.60424 25.8854 10.2083 25.8854H14.5833C15.1873 25.8854 15.677 25.3957 15.677 24.7917C15.677 24.1876 15.1873 23.6979 14.5833 23.6979H12.8488L16.0858 20.4608Z" fill="#121212"/>
</svg>
