<svg width="35" height="35" viewBox="0 0 35 35" fill="none" xmlns="http://www.w3.org/2000/svg">
<path d="M13.125 17.5C13.125 18.3054 12.4721 18.9583 11.6667 18.9583C10.8613 18.9583 10.2083 18.3054 10.2083 17.5C10.2083 16.6946 10.8613 16.0417 11.6667 16.0417C12.4721 16.0417 13.125 16.6946 13.125 17.5Z" fill="#121212"/>
<path d="M18.2083 17.5C18.2083 17.8912 17.8912 18.2083 17.5 18.2083C17.1088 18.2083 16.7917 17.8912 16.7917 17.5C16.7917 17.1088 17.1088 16.7917 17.5 16.7917C17.8912 16.7917 18.2083 17.1088 18.2083 17.5Z" fill="#121212" stroke="#121212" stroke-width="1.5"/>
<path d="M24.0417 17.5C24.0417 17.8912 23.7246 18.2083 23.3333 18.2083C22.9421 18.2083 22.625 17.8912 22.625 17.5C22.625 17.1088 22.9421 16.7917 23.3333 16.7917C23.7246 16.7917 24.0417 17.1088 24.0417 17.5Z" fill="#121212" stroke="#121212" stroke-width="1.5"/>
<path d="M32.0833 17.5C32.0833 24.3746 32.0833 27.812 29.9476 29.9476C27.812 32.0833 24.3746 32.0833 17.5 32.0833C10.6253 32.0833 7.18803 32.0833 5.05236 29.9476C2.91667 27.812 2.91667 24.3746 2.91667 17.5C2.91667 10.6253 2.91667 7.18803 5.05236 5.05236C7.18803 2.91667 10.6253 2.91667 17.5 2.91667C24.3746 2.91667 27.812 2.91667 29.9476 5.05236C31.3677 6.47239 31.8436 8.46789 32.003 11.6667" stroke="#121212" stroke-width="1.5" stroke-linecap="round"/>
</svg>
