<svg width="30" height="30" viewBox="0 0 30 30" fill="none" xmlns="http://www.w3.org/2000/svg">
<path fill-rule="evenodd" clip-rule="evenodd" d="M13.7717 3.50196C7.9634 4.11526 3.4375 9.0291 3.4375 15C3.4375 21.3857 8.61421 26.5625 15 26.5625C20.9709 26.5625 25.8847 22.0366 26.498 16.2282C24.8396 18.3336 22.2657 19.6875 19.375 19.6875C14.3699 19.6875 10.3125 15.6301 10.3125 10.625C10.3125 7.73422 11.6664 5.16037 13.7717 3.50196ZM1.5625 15C1.5625 7.57867 7.57867 1.5625 15 1.5625C15.8957 1.5625 16.3442 2.27657 16.421 2.84534C16.495 3.39247 16.2927 4.08831 15.6637 4.46834C13.5784 5.7285 12.1875 8.01477 12.1875 10.625C12.1875 14.5945 15.4055 17.8125 19.375 17.8125C21.9852 17.8125 24.2715 16.4216 25.5316 14.3362C25.9116 13.7072 26.6075 13.505 27.1546 13.579C27.7234 13.6557 28.4375 14.1042 28.4375 15C28.4375 22.4214 22.4214 28.4375 15 28.4375C7.57867 28.4375 1.5625 22.4214 1.5625 15Z" fill="#121212"/>
</svg>
