<svg width="130" height="126" viewBox="0 0 130 126" fill="none" xmlns="http://www.w3.org/2000/svg">
<path d="M128.765 64.8303L63.3939 80.7702L28.5965 16.9827L93.9671 1.0428L128.765 64.8303Z" stroke="#90BD92"/>
<path d="M35.8054 124.54L1.06324 60.8539L27.8186 17.6449L62.5608 81.3311L35.8054 124.54Z" stroke="#90BD92"/>
<path d="M36.846 124.759L63.4563 81.7843L128.447 65.9371L101.837 108.912L36.846 124.759Z" stroke="#90BD92"/>
<path d="M66.5437 44.2157L1.55303 60.0629L28.1633 17.0883L93.154 1.24107L66.5437 44.2157Z" stroke="#90BD92"/>
<path d="M102.181 108.355L67.4392 44.6689L94.1946 1.45993L128.937 65.1461L102.181 108.355Z" stroke="#90BD92"/>
<path d="M36.0329 124.957L1.23548 61.1697L66.6061 45.2298L101.404 109.017L36.0329 124.957Z" stroke="#90BD92"/>
</svg>
