<svg width="318" height="175" viewBox="0 0 318 175" fill="none" xmlns="http://www.w3.org/2000/svg">
<g clip-path="url(#clip0_2_2)">
<path d="M118.496 120.261C123.48 120.261 127.52 116.222 127.52 111.239C127.52 106.257 123.48 102.218 118.496 102.218C113.512 102.218 109.471 106.257 109.471 111.239C109.471 116.222 113.512 120.261 118.496 120.261Z" fill="#121212"/>
<path d="M117.636 115.048L114.935 111.576L116.505 110.355L117.784 111.998L122.105 107.439L123.55 108.807L117.636 115.048Z" fill="white"/>
<path d="M290.942 28.6661H156.787V0H290.942V28.6661Z" fill="white"/>
<path d="M174.171 21.6151C178.194 21.6151 181.455 18.3548 181.455 14.333C181.455 10.3113 178.194 7.05102 174.171 7.05102C170.148 7.05102 166.887 10.3113 166.887 14.333C166.887 18.3548 170.148 21.6151 174.171 21.6151Z" fill="#121212"/>
<path d="M190.994 9.47836C190.672 9.47836 190.363 9.60623 190.135 9.83383C189.908 10.0614 189.78 10.3701 189.78 10.692C189.78 11.0139 189.908 11.3226 190.135 11.5502C190.363 11.7778 190.672 11.9057 190.994 11.9057H279.631C279.953 11.9049 280.261 11.7767 280.488 11.5492C280.715 11.3217 280.843 11.0134 280.843 10.692C280.843 10.3706 280.715 10.0624 280.488 9.83485C280.261 9.60732 279.953 9.47912 279.631 9.47836H190.994Z" fill="#3F3D56"/>
<path d="M190.994 16.7604C190.672 16.7597 190.363 16.8869 190.134 17.114C189.906 17.3412 189.778 17.6496 189.777 17.9715C189.776 18.2934 189.904 18.6023 190.131 18.8304C190.358 19.0585 190.667 19.187 190.989 19.1877H247.026C247.186 19.188 247.344 19.1568 247.492 19.0959C247.639 19.035 247.773 18.9457 247.886 18.8329C247.999 18.7202 248.089 18.5863 248.15 18.439C248.211 18.2916 248.242 18.1336 248.242 17.974C248.242 17.8145 248.211 17.6565 248.15 17.5091C248.089 17.3617 247.999 17.2278 247.886 17.1151C247.773 17.0024 247.639 16.913 247.492 16.8522C247.344 16.7913 247.186 16.7601 247.026 16.7604H190.994Z" fill="#3F3D56"/>
<path d="M290.942 28.6661H156.787V0H290.942V28.6661ZM158.835 26.6185H288.894V2.04758H158.835V26.6185Z" fill="#CCCCCC"/>
<path d="M290.942 64.4987H156.787V35.8326H290.942V64.4987Z" fill="white"/>
<path d="M174.171 57.4477C178.194 57.4477 181.455 54.1874 181.455 50.1657C181.455 46.1439 178.194 42.8836 174.171 42.8836C170.148 42.8836 166.887 46.1439 166.887 50.1657C166.887 54.1874 170.148 57.4477 174.171 57.4477Z" fill="#E6E6E6"/>
<path d="M190.994 45.311C190.672 45.311 190.363 45.4388 190.135 45.6664C189.908 45.8941 189.78 46.2028 189.78 46.5246C189.78 46.8465 189.908 47.1552 190.135 47.3828C190.363 47.6104 190.672 47.7383 190.994 47.7383H279.631C279.953 47.7376 280.261 47.6093 280.488 47.3818C280.715 47.1543 280.843 46.846 280.843 46.5246C280.843 46.2033 280.715 45.895 280.488 45.6675C280.261 45.4399 279.953 45.3117 279.631 45.311H190.994Z" fill="#E6E6E6"/>
<path d="M190.994 52.593C190.672 52.5923 190.363 52.7195 190.134 52.9466C189.906 53.1738 189.778 53.4822 189.777 53.8041C189.776 54.126 189.904 54.4349 190.131 54.663C190.358 54.8911 190.667 55.0196 190.989 55.0203H247.026C247.186 55.0206 247.344 54.9894 247.492 54.9285C247.639 54.8676 247.773 54.7783 247.886 54.6656C247.999 54.5528 248.089 54.4189 248.15 54.2716C248.211 54.1242 248.242 53.9662 248.242 53.8066C248.242 53.6471 248.211 53.4891 248.15 53.3417C248.089 53.1943 247.999 53.0605 247.886 52.9477C247.773 52.835 247.639 52.7457 247.492 52.6848C247.344 52.6239 247.186 52.5927 247.026 52.593H190.994Z" fill="#E6E6E6"/>
<path d="M290.942 64.4987H156.787V35.8326H290.942V64.4987ZM158.835 62.4511H288.894V37.8802H158.835V62.4511Z" fill="#E6E6E6"/>
<path d="M290.942 100.331H156.787V71.6652H290.942V100.331Z" fill="white"/>
<path d="M174.171 93.2803C178.194 93.2803 181.455 90.02 181.455 85.9983C181.455 81.9765 178.194 78.7162 174.171 78.7162C170.148 78.7162 166.887 81.9765 166.887 85.9983C166.887 90.02 170.148 93.2803 174.171 93.2803Z" fill="#E6E6E6"/>
<path d="M190.994 81.1436C190.672 81.1436 190.363 81.2714 190.135 81.4991C189.908 81.7267 189.78 82.0354 189.78 82.3573C189.78 82.6791 189.908 82.9878 190.135 83.2154C190.363 83.4431 190.672 83.5709 190.994 83.5709H279.631C279.953 83.5702 280.261 83.442 280.488 83.2144C280.715 82.9869 280.843 82.6786 280.843 82.3573C280.843 82.0359 280.715 81.7276 280.488 81.5001C280.261 81.2725 279.953 81.1443 279.631 81.1436H190.994Z" fill="#E6E6E6"/>
<path d="M190.994 88.4256C190.672 88.4249 190.363 88.5521 190.134 88.7793C189.906 89.0064 189.778 89.3148 189.777 89.6367C189.776 89.9586 189.904 90.2676 190.131 90.4957C190.358 90.7237 190.667 90.8523 190.989 90.8529H247.026C247.186 90.8532 247.344 90.822 247.492 90.7611C247.639 90.7003 247.773 90.6109 247.886 90.4982C247.999 90.3855 248.089 90.2516 248.15 90.1042C248.211 89.9568 248.242 89.7988 248.242 89.6393C248.242 89.4797 248.211 89.3217 248.15 89.1744C248.089 89.027 247.999 88.8931 247.886 88.7804C247.773 88.6676 247.639 88.5783 247.492 88.5174C247.344 88.4565 247.186 88.4253 247.026 88.4256H190.994Z" fill="#E6E6E6"/>
<path d="M290.942 100.331H156.787V71.6652H290.942V100.331ZM158.835 98.2837H288.894V73.7128H158.835V98.2837Z" fill="#E6E6E6"/>
<path d="M68.5311 107.132C68.2253 106.74 68.0093 106.284 67.8985 105.799C67.7876 105.314 67.7846 104.81 67.8895 104.323C67.9945 103.836 68.2049 103.379 68.506 102.982C68.8071 102.585 69.1915 102.26 69.6321 102.028L68.9208 94.2779L73.5262 92.6971L74.377 103.655C74.7178 104.421 74.7658 105.286 74.5118 106.084C74.2578 106.883 73.7195 107.561 72.9989 107.99C72.2783 108.418 71.4255 108.568 70.6021 108.41C69.7786 108.252 69.0418 107.797 68.5311 107.132Z" fill="#FFB8B8"/>
<path d="M73.4752 62.6533C73.4752 62.6533 76.6357 56.0226 79.444 58.355C82.2523 60.6874 75.5938 80.293 75.5938 80.293L74.5811 99.3255L69.2438 98.7921L67.7348 80.2493L73.4752 62.6533Z" fill="#CCCCCC"/>
<path d="M31.083 160.751L35.0449 163.957L49.3005 150.206L43.4533 145.474L31.083 160.751Z" fill="#FFB8B8"/>
<path d="M31.1194 158.64L38.922 164.954L38.9223 164.954C40.2409 166.022 41.0815 167.569 41.2591 169.256C41.4367 170.943 40.9368 172.631 39.8693 173.949L39.7385 174.111L26.9635 163.773L31.1194 158.64Z" fill="#2F2E41"/>
<path d="M86.145 169.651H91.2422L93.6673 149.995L86.144 149.996L86.145 169.651Z" fill="#FFB8B8"/>
<path d="M84.8447 167.987L94.8832 167.987H94.8836C96.5802 167.987 98.2074 168.661 99.4071 169.86C100.607 171.06 101.281 172.686 101.281 174.382V174.59L84.845 174.591L84.8447 167.987Z" fill="#2F2E41"/>
<path d="M95.0893 77.5042C95.0893 77.5042 104.652 89.1426 102.573 100.781C100.494 112.419 98.8313 121.148 98.8313 121.148L95.5051 147.334C95.5051 147.334 96.7524 154.466 95.0893 156.304C95.0893 156.304 97.584 160.635 93.0104 162.298C88.4369 163.961 85.9692 161.724 85.9692 161.724C85.9692 161.724 82.616 156.894 84.6949 155.648L85.5706 104.258L52.2644 147.75C52.2644 147.75 51.6522 153.041 47.3847 153.097L42.2857 156.894L36.4649 153.569L39.3753 149.828C39.3753 149.828 37.7122 145.672 41.4542 144.84L63.0746 116.576L68.4797 102.028C68.4797 102.028 71.3901 90.8052 79.2898 86.233V81.3679L95.0893 77.5042Z" fill="#2F2E41"/>
<path d="M78.6662 57.3449C79.9251 55.8576 81.6872 54.8851 83.617 54.6127C85.5468 54.3403 87.5094 54.787 89.131 55.8678L89.4763 56.098C93.1669 60.2761 95.6473 65.3816 96.6505 70.8646L98.2076 79.3747L78.6662 83.6065L74.085 67.8115C73.5035 65.8067 73.6435 63.6616 74.4805 61.7492C75.3175 59.8369 76.7986 58.2784 78.6662 57.3449Z" fill="#CCCCCC"/>
<path d="M110.772 108.942C110.23 108.765 109.734 108.471 109.318 108.082C108.902 107.692 108.576 107.216 108.364 106.687C108.152 106.158 108.059 105.589 108.09 105.02C108.122 104.451 108.278 103.896 108.548 103.394L102.91 96.4972L106.267 92.0502L114.091 101.902C114.905 102.411 115.504 103.2 115.774 104.12C116.045 105.041 115.968 106.028 115.559 106.896C115.15 107.764 114.437 108.451 113.554 108.828C112.672 109.205 111.682 109.246 110.772 108.942Z" fill="#FFB8B8"/>
<path d="M86.9817 63.5798C86.9817 63.5798 85.7343 55.2667 89.8921 55.6823C94.0499 56.098 100.287 78.959 100.287 78.959L111.512 97.6636L106.107 100.573L92.8026 83.9469L86.9817 63.5798Z" fill="#CCCCCC"/>
<path d="M94.5955 51.4263H74.7965C74.3892 51.4259 73.9988 51.2639 73.7108 50.976C73.4228 50.6881 73.2608 50.2978 73.2604 49.8907V41.3591C73.2604 38.3271 74.4652 35.4192 76.6098 33.2752C78.7544 31.1313 81.6631 29.9268 84.696 29.9268C87.7289 29.9268 90.6376 31.1313 92.7822 33.2752C94.9268 35.4192 96.1316 38.3271 96.1316 41.3591V49.8907C96.1312 50.2978 95.9692 50.6881 95.6812 50.976C95.3932 51.2639 95.0028 51.4259 94.5955 51.4263Z" fill="#2F2E41"/>
<path d="M87.0459 51.2277C91.6764 51.2277 95.4301 47.4751 95.4301 42.846C95.4301 38.2168 91.6764 34.4642 87.0459 34.4642C82.4154 34.4642 78.6617 38.2168 78.6617 42.846C78.6617 47.4751 82.4154 51.2277 87.0459 51.2277Z" fill="#FFB8B8"/>
<path d="M98.837 42.2123H88.2857L88.1774 40.4746L87.6365 42.2123H86.0118L85.7974 38.7683L84.7251 42.2123H81.5815V42.0416C81.5815 37.055 85.1182 32.9982 89.4654 32.9982H90.953C95.3003 32.9982 98.837 37.055 98.837 42.0416V42.2123Z" fill="#2F2E41"/>
<path d="M88.7223 53.0189C88.5934 53.0188 88.4646 53.0089 88.3372 52.9892L75.7783 51.0554V37.9783C75.7783 36.6424 76.3091 35.3612 77.254 34.4166C78.1989 33.472 79.4804 32.9413 80.8167 32.9413H89.6032L89.2609 33.2896C84.4988 38.1365 88.0865 45.9958 90.6489 50.2493C90.837 50.555 90.922 50.913 90.8913 51.2706C90.8607 51.6283 90.716 51.9666 90.4786 52.2358C90.2605 52.4863 89.9903 52.6862 89.687 52.8214C89.3837 52.9567 89.0544 53.0241 88.7223 53.0189Z" fill="#2F2E41"/>
<path d="M308.976 23.3425C313.96 23.3425 318 19.3033 318 14.3207C318 9.33815 313.96 5.29898 308.976 5.29898C303.992 5.29898 299.951 9.33815 299.951 14.3207C299.951 19.3033 303.992 23.3425 308.976 23.3425Z" fill="#121212"/>
<path d="M308.116 18.1289L305.415 14.6572L306.985 13.4359L308.264 15.0797L312.585 10.5201L314.03 11.8886L308.116 18.1289Z" fill="white"/>
<path d="M130.4 175H0.341362C0.250827 175 0.164 174.964 0.0999823 174.9C0.0359645 174.836 0 174.749 0 174.659C0 174.568 0.0359645 174.481 0.0999823 174.417C0.164 174.353 0.250827 174.317 0.341362 174.317H130.4C130.491 174.317 130.578 174.353 130.642 174.417C130.706 174.481 130.742 174.568 130.742 174.659C130.742 174.749 130.706 174.836 130.642 174.9C130.578 174.964 130.491 175 130.4 175Z" fill="#CCCCCC"/>
</g>
<defs>
<clipPath id="clip0_2_2">
<rect width="318" height="175" fill="white"/>
</clipPath>
</defs>
</svg>
