<svg width="35" height="35" viewBox="0 0 35 35" fill="none" xmlns="http://www.w3.org/2000/svg">
<path d="M13.125 17.5C13.125 18.3054 12.4721 18.9583 11.6667 18.9583C10.8613 18.9583 10.2083 18.3054 10.2083 17.5C10.2083 16.6946 10.8613 16.0417 11.6667 16.0417C12.4721 16.0417 13.125 16.6946 13.125 17.5Z" fill="#121212"/>
<path d="M18.4583 17.5C18.4583 18.0293 18.0293 18.4583 17.5 18.4583C16.9707 18.4583 16.5417 18.0293 16.5417 17.5C16.5417 16.9707 16.9707 16.5417 17.5 16.5417C18.0293 16.5417 18.4583 16.9707 18.4583 17.5Z" fill="#121212" stroke="#121212"/>
<path d="M24.2917 17.5C24.2917 18.0293 23.8626 18.4583 23.3333 18.4583C22.804 18.4583 22.375 18.0293 22.375 17.5C22.375 16.9707 22.804 16.5417 23.3333 16.5417C23.8626 16.5417 24.2917 16.9707 24.2917 17.5Z" fill="#121212" stroke="#121212"/>
<path d="M32.0833 17.5C32.0833 24.3746 32.0833 27.812 29.9476 29.9476C27.812 32.0833 24.3746 32.0833 17.5 32.0833C10.6253 32.0833 7.18803 32.0833 5.05236 29.9476C2.91667 27.812 2.91667 24.3746 2.91667 17.5C2.91667 10.6253 2.91667 7.18803 5.05236 5.05236C7.18803 2.91667 10.6253 2.91667 17.5 2.91667C24.3746 2.91667 27.812 2.91667 29.9476 5.05236C31.3677 6.47239 31.8436 8.46789 32.003 11.6667" stroke="#121212" stroke-linecap="round"/>
</svg>
