<svg width="35" height="35" viewBox="0 0 35 35" fill="none" xmlns="http://www.w3.org/2000/svg">
<path opacity="0.4" d="M17.676 18.6375C17.5739 18.6229 17.4427 18.6229 17.326 18.6375C14.7593 18.55 12.7177 16.45 12.7177 13.8687C12.7177 11.2291 14.8468 9.08539 17.501 9.08539C20.1406 9.08539 22.2843 11.2291 22.2843 13.8687C22.2698 16.45 20.2427 18.55 17.676 18.6375Z" stroke="black" stroke-width="1.5" stroke-linecap="round" stroke-linejoin="round"/>
<path opacity="0.34" d="M27.3289 28.2626C24.733 30.6397 21.2914 32.0835 17.4997 32.0835C13.708 32.0835 10.2663 30.6397 7.6705 28.2626C7.81634 26.8918 8.69133 25.5501 10.2518 24.5001C14.2476 21.846 20.781 21.846 24.7476 24.5001C26.308 25.5501 27.183 26.8918 27.3289 28.2626Z" stroke="black" stroke-width="1.5" stroke-linecap="round" stroke-linejoin="round"/>
<path d="M17.5 32.0833C25.5541 32.0833 32.0833 25.5541 32.0833 17.5C32.0833 9.44585 25.5541 2.91667 17.5 2.91667C9.44585 2.91667 2.91667 9.44585 2.91667 17.5C2.91667 25.5541 9.44585 32.0833 17.5 32.0833Z" stroke="black" stroke-linecap="round" stroke-linejoin="round"/>
</svg>
